<mxfile host="65bd71144e">
    <diagram id="4HXOSx8b92d5eHMQdR-d" name="Archticture">
        <mxGraphModel dx="990" dy="541" grid="1" gridSize="10" guides="1" tooltips="1" connect="1" arrows="1" fold="1" page="1" pageScale="1" pageWidth="850" pageHeight="1100" math="0" shadow="0">
            <root>
                <mxCell id="0"/>
                <mxCell id="1" parent="0"/>
                <mxCell id="98UtzHjMPyIg5sAYE3Sx-1" value="" style="ellipse;whiteSpace=wrap;html=1;aspect=fixed;" parent="1" vertex="1">
                    <mxGeometry x="146.75" y="376.75" width="375" height="375" as="geometry"/>
                </mxCell>
                <mxCell id="98UtzHjMPyIg5sAYE3Sx-2" value="" style="ellipse;whiteSpace=wrap;html=1;aspect=fixed;" parent="1" vertex="1">
                    <mxGeometry x="193.75" y="424" width="280.5" height="280.5" as="geometry"/>
                </mxCell>
                <mxCell id="98UtzHjMPyIg5sAYE3Sx-3" value="&lt;font face=&quot;Cairo&quot;&gt;&lt;span style=&quot;font-size: 14px&quot;&gt;Domain&lt;/span&gt;&lt;/font&gt;" style="ellipse;whiteSpace=wrap;html=1;aspect=fixed;" parent="1" vertex="1">
                    <mxGeometry x="244" y="474.25" width="180" height="180" as="geometry"/>
                </mxCell>
                <mxCell id="98UtzHjMPyIg5sAYE3Sx-4" style="edgeStyle=none;rounded=0;orthogonalLoop=1;jettySize=auto;html=1;entryX=0;entryY=0.5;entryDx=0;entryDy=0;" parent="1" source="98UtzHjMPyIg5sAYE3Sx-5" target="98UtzHjMPyIg5sAYE3Sx-19" edge="1">
                    <mxGeometry relative="1" as="geometry"/>
                </mxCell>
                <mxCell id="98UtzHjMPyIg5sAYE3Sx-5" value="&lt;font face=&quot;Cairo&quot; data-font-src=&quot;https://fonts.googleapis.com/css?family=Cairo&quot; style=&quot;font-size: 12px&quot;&gt;Application&lt;/font&gt;" style="text;html=1;strokeColor=none;fillColor=none;align=center;verticalAlign=middle;whiteSpace=wrap;rounded=0;" parent="1" vertex="1">
                    <mxGeometry x="269" y="439.25" width="130" height="20" as="geometry"/>
                </mxCell>
                <mxCell id="98UtzHjMPyIg5sAYE3Sx-6" value="" style="endArrow=none;html=1;" parent="1" edge="1">
                    <mxGeometry width="50" height="50" relative="1" as="geometry">
                        <mxPoint x="146.75" y="564" as="sourcePoint"/>
                        <mxPoint x="193.75" y="564" as="targetPoint"/>
                    </mxGeometry>
                </mxCell>
                <mxCell id="98UtzHjMPyIg5sAYE3Sx-7" value="" style="endArrow=none;html=1;" parent="1" edge="1">
                    <mxGeometry width="50" height="50" relative="1" as="geometry">
                        <mxPoint x="474.75" y="564.01" as="sourcePoint"/>
                        <mxPoint x="521.75" y="564.01" as="targetPoint"/>
                    </mxGeometry>
                </mxCell>
                <mxCell id="98UtzHjMPyIg5sAYE3Sx-9" style="edgeStyle=none;rounded=0;orthogonalLoop=1;jettySize=auto;html=1;entryX=0.553;entryY=1.007;entryDx=0;entryDy=0;entryPerimeter=0;" parent="1" source="98UtzHjMPyIg5sAYE3Sx-10" target="98UtzHjMPyIg5sAYE3Sx-17" edge="1">
                    <mxGeometry relative="1" as="geometry"/>
                </mxCell>
                <mxCell id="98UtzHjMPyIg5sAYE3Sx-10" value="&lt;font face=&quot;Cairo&quot; data-font-src=&quot;https://fonts.googleapis.com/css?family=Cairo&quot;&gt;Presentation&lt;/font&gt;" style="text;html=1;strokeColor=none;fillColor=none;align=center;verticalAlign=middle;whiteSpace=wrap;rounded=0;" parent="1" vertex="1">
                    <mxGeometry x="294" y="390" width="80" height="20" as="geometry"/>
                </mxCell>
                <mxCell id="98UtzHjMPyIg5sAYE3Sx-11" style="edgeStyle=none;rounded=0;orthogonalLoop=1;jettySize=auto;html=1;entryX=0.5;entryY=0;entryDx=0;entryDy=0;" parent="1" source="98UtzHjMPyIg5sAYE3Sx-12" target="98UtzHjMPyIg5sAYE3Sx-25" edge="1">
                    <mxGeometry relative="1" as="geometry"/>
                </mxCell>
                <mxCell id="98UtzHjMPyIg5sAYE3Sx-12" value="&lt;font face=&quot;Cairo&quot; data-font-src=&quot;https://fonts.googleapis.com/css?family=Cairo&quot; style=&quot;font-size: 14px&quot;&gt;Infrastructure&lt;/font&gt;" style="text;html=1;strokeColor=none;fillColor=none;align=center;verticalAlign=middle;whiteSpace=wrap;rounded=0;rotation=0;" parent="1" vertex="1">
                    <mxGeometry x="282" y="716" width="117" height="24.25" as="geometry"/>
                </mxCell>
                <mxCell id="98UtzHjMPyIg5sAYE3Sx-15" style="edgeStyle=none;rounded=0;orthogonalLoop=1;jettySize=auto;html=1;entryX=-0.009;entryY=0.516;entryDx=0;entryDy=0;exitX=1;exitY=0.5;exitDx=0;exitDy=0;entryPerimeter=0;" parent="1" source="98UtzHjMPyIg5sAYE3Sx-3" target="98UtzHjMPyIg5sAYE3Sx-23" edge="1">
                    <mxGeometry relative="1" as="geometry">
                        <mxPoint x="616.75" y="575" as="targetPoint"/>
                    </mxGeometry>
                </mxCell>
                <mxCell id="98UtzHjMPyIg5sAYE3Sx-16" value="" style="rounded=1;absoluteArcSize=1;html=1;arcSize=10;" parent="1" vertex="1">
                    <mxGeometry x="164" y="180" width="340" height="100" as="geometry"/>
                </mxCell>
                <mxCell id="98UtzHjMPyIg5sAYE3Sx-17" value="&lt;font face=&quot;Cairo&quot; data-font-src=&quot;https://fonts.googleapis.com/css?family=Cairo&quot; style=&quot;font-size: 14px&quot;&gt;API Application&lt;/font&gt;" style="html=1;shape=mxgraph.er.anchor;whiteSpace=wrap;" parent="98UtzHjMPyIg5sAYE3Sx-16" vertex="1">
                    <mxGeometry width="170" height="100" as="geometry"/>
                </mxCell>
                <mxCell id="98UtzHjMPyIg5sAYE3Sx-18" value="&lt;font face=&quot;Cairo&quot; data-font-src=&quot;https://fonts.googleapis.com/css?family=Cairo&quot; style=&quot;font-size: 14px&quot;&gt;Swagger&lt;br&gt;Middlewares&lt;br&gt;&lt;/font&gt;" style="rounded=1;absoluteArcSize=1;html=1;arcSize=10;whiteSpace=wrap;points=[];strokeColor=inherit;fillColor=inherit;" parent="98UtzHjMPyIg5sAYE3Sx-16" vertex="1">
                    <mxGeometry x="170" y="5" width="153" height="90" as="geometry"/>
                </mxCell>
                <mxCell id="98UtzHjMPyIg5sAYE3Sx-19" value="" style="rounded=1;absoluteArcSize=1;html=1;arcSize=10;" parent="1" vertex="1">
                    <mxGeometry x="526.75" y="309.25" width="310" height="150" as="geometry"/>
                </mxCell>
                <mxCell id="98UtzHjMPyIg5sAYE3Sx-20" value="&lt;font face=&quot;Cairo&quot; data-font-src=&quot;https://fonts.googleapis.com/css?family=Cairo&quot; style=&quot;font-size: 14px&quot;&gt;Application&lt;/font&gt;" style="html=1;shape=mxgraph.er.anchor;whiteSpace=wrap;" parent="98UtzHjMPyIg5sAYE3Sx-19" vertex="1">
                    <mxGeometry width="155" height="150" as="geometry"/>
                </mxCell>
                <mxCell id="98UtzHjMPyIg5sAYE3Sx-21" value="&lt;div style=&quot;text-align: left&quot;&gt;&lt;span style=&quot;font-size: 14px ; font-family: &amp;#34;cairo&amp;#34;&quot;&gt;Interfaces Definition&lt;/span&gt;&lt;/div&gt;&lt;font face=&quot;Cairo&quot; data-font-src=&quot;https://fonts.googleapis.com/css?family=Cairo&quot; style=&quot;font-size: 14px&quot;&gt;&lt;div style=&quot;text-align: left&quot;&gt;&lt;span&gt;Contracts&lt;/span&gt;&lt;/div&gt;&lt;div style=&quot;text-align: left&quot;&gt;&lt;span&gt;Request Handlers&lt;/span&gt;&lt;/div&gt;&lt;div style=&quot;text-align: left&quot;&gt;&lt;span&gt;Model Validations&lt;/span&gt;&lt;/div&gt;&lt;/font&gt;" style="rounded=1;absoluteArcSize=1;html=1;arcSize=10;whiteSpace=wrap;points=[];strokeColor=inherit;fillColor=inherit;" parent="98UtzHjMPyIg5sAYE3Sx-19" vertex="1">
                    <mxGeometry x="140" y="7.5" width="154.5" height="135" as="geometry"/>
                </mxCell>
                <mxCell id="98UtzHjMPyIg5sAYE3Sx-22" value="" style="rounded=1;absoluteArcSize=1;html=1;arcSize=10;" parent="1" vertex="1">
                    <mxGeometry x="550" y="590.25" width="266.25" height="150" as="geometry"/>
                </mxCell>
                <mxCell id="98UtzHjMPyIg5sAYE3Sx-23" value="&lt;font face=&quot;Cairo&quot; data-font-src=&quot;https://fonts.googleapis.com/css?family=Cairo&quot; style=&quot;font-size: 14px&quot;&gt;Domain&lt;/font&gt;" style="html=1;shape=mxgraph.er.anchor;whiteSpace=wrap;" parent="98UtzHjMPyIg5sAYE3Sx-22" vertex="1">
                    <mxGeometry width="133.125" height="150" as="geometry"/>
                </mxCell>
                <mxCell id="98UtzHjMPyIg5sAYE3Sx-24" value="&lt;div style=&quot;text-align: left&quot;&gt;&lt;span style=&quot;font-size: 14px ; font-family: &amp;#34;cairo&amp;#34;&quot;&gt;Entities&lt;/span&gt;&lt;/div&gt;&lt;font face=&quot;Cairo&quot; data-font-src=&quot;https://fonts.googleapis.com/css?family=Cairo&quot; style=&quot;font-size: 14px&quot;&gt;&lt;div style=&quot;text-align: left&quot;&gt;&lt;span&gt;Events&lt;/span&gt;&lt;/div&gt;&lt;div style=&quot;text-align: left&quot;&gt;&lt;span&gt;Object Values&lt;/span&gt;&lt;/div&gt;&lt;/font&gt;" style="rounded=1;absoluteArcSize=1;html=1;arcSize=10;whiteSpace=wrap;points=[];strokeColor=inherit;fillColor=inherit;" parent="98UtzHjMPyIg5sAYE3Sx-22" vertex="1">
                    <mxGeometry x="110" y="7.5" width="142.94" height="135" as="geometry"/>
                </mxCell>
                <mxCell id="98UtzHjMPyIg5sAYE3Sx-25" value="" style="rounded=1;absoluteArcSize=1;html=1;arcSize=10;" parent="1" vertex="1">
                    <mxGeometry x="199" y="840" width="283.25" height="150" as="geometry"/>
                </mxCell>
                <mxCell id="98UtzHjMPyIg5sAYE3Sx-26" value="&lt;font face=&quot;Cairo&quot; data-font-src=&quot;https://fonts.googleapis.com/css?family=Cairo&quot; style=&quot;font-size: 14px&quot;&gt;Infrastructure&lt;/font&gt;" style="html=1;shape=mxgraph.er.anchor;whiteSpace=wrap;" parent="98UtzHjMPyIg5sAYE3Sx-25" vertex="1">
                    <mxGeometry width="141.625" height="150" as="geometry"/>
                </mxCell>
                <mxCell id="98UtzHjMPyIg5sAYE3Sx-27" value="&lt;div style=&quot;text-align: left&quot;&gt;&lt;span style=&quot;font-size: 14px ; font-family: &amp;#34;cairo&amp;#34;&quot;&gt;Persistence&lt;/span&gt;&lt;/div&gt;&lt;font face=&quot;Cairo&quot; data-font-src=&quot;https://fonts.googleapis.com/css?family=Cairo&quot; style=&quot;font-size: 14px&quot;&gt;&lt;div style=&quot;text-align: left&quot;&gt;&lt;span&gt;Entities Configuration&lt;/span&gt;&lt;/div&gt;&lt;div style=&quot;text-align: left&quot;&gt;&lt;span&gt;Migrations&lt;/span&gt;&lt;/div&gt;&lt;/font&gt;" style="rounded=1;absoluteArcSize=1;html=1;arcSize=10;whiteSpace=wrap;points=[];strokeColor=inherit;fillColor=inherit;" parent="98UtzHjMPyIg5sAYE3Sx-25" vertex="1">
                    <mxGeometry x="120" y="7.5" width="149.09" height="135" as="geometry"/>
                </mxCell>
                <mxCell id="98UtzHjMPyIg5sAYE3Sx-33" style="edgeStyle=none;rounded=0;orthogonalLoop=1;jettySize=auto;html=1;" parent="1" source="98UtzHjMPyIg5sAYE3Sx-1" target="98UtzHjMPyIg5sAYE3Sx-3" edge="1">
                    <mxGeometry relative="1" as="geometry"/>
                </mxCell>
                <mxCell id="98UtzHjMPyIg5sAYE3Sx-37" value="&lt;font face=&quot;Cairo&quot; data-font-src=&quot;https://fonts.googleapis.com/css?family=Cairo&quot; style=&quot;font-size: 14px&quot;&gt;Unit Test&lt;/font&gt;" style="rounded=1;whiteSpace=wrap;html=1;rotation=-90;" parent="1" vertex="1">
                    <mxGeometry x="-176" y="520" width="420" height="30" as="geometry"/>
                </mxCell>
                <mxCell id="98UtzHjMPyIg5sAYE3Sx-38" value="&lt;h1&gt;&lt;font face=&quot;Cairo&quot; data-font-src=&quot;https://fonts.googleapis.com/css?family=Cairo&quot; style=&quot;font-size: 24px&quot;&gt;Application Architecture&lt;/font&gt;&lt;/h1&gt;&lt;p&gt;&lt;font face=&quot;Cairo&quot; data-font-src=&quot;https://fonts.googleapis.com/css?family=Cairo&quot; style=&quot;font-size: 14px&quot;&gt;application architecture depend on the clean architecture and domain driven concept&lt;/font&gt;&lt;/p&gt;" style="text;html=1;strokeColor=none;fillColor=none;spacing=5;spacingTop=-20;whiteSpace=wrap;overflow=hidden;rounded=0;" parent="1" vertex="1">
                    <mxGeometry x="42" y="40" width="308" height="120" as="geometry"/>
                </mxCell>
            </root>
        </mxGraphModel>
    </diagram>
</mxfile>